<?xml version="1.0" encoding="iso-8859-1"?>
<!-- Uploaded to: SVG Repo, www.svgrepo.com, Generator: SVG Repo Mixer Tools -->
<svg version="1.1" id="Layer_1" xmlns="http://www.w3.org/2000/svg" xmlns:xlink="http://www.w3.org/1999/xlink" 
	 viewBox="0 0 392.52 392.52" xml:space="preserve">
<path style="fill:#FFFFFF;" d="M145.713,155.639c-0.388-9.568,8.986-13.446,14.675-10.99l29.608,10.99h169.762
	c6.012,0,10.925-4.848,10.925-10.925V34.168c0-6.012-4.848-10.925-10.925-10.925H32.711c-6.012,0-10.925,4.848-10.925,10.925
	v110.545c0,6.012,4.848,10.925,10.925,10.925H145.713z"/>
<rect x="43.572" y="45.094" style="fill:#56ACE0;" width="305.196" height="88.76"/>
<g>
	<path style="fill:#194F82;" d="M385.358,228.043L248.824,177.49h110.933c18.036,0,32.711-14.675,32.711-32.711V34.233
		c0-18.036-14.675-32.711-32.711-32.711H32.711C14.675,1.522,0,16.132,0,34.233v110.545c0,17.972,14.675,32.711,32.711,32.711
		h120.63l76.412,206.158c5.172,11.572,18.036,7.822,20.428,0.129l20.881-53.269l37.624,37.624c4.267,4.267,11.119,4.267,15.386,0
		l45.899-45.899c4.655-4.655,3.685-11.636,0-15.386l-37.624-37.56l53.269-20.881C393.051,246.015,396.541,232.245,385.358,228.043z
		 M145.648,155.639H32.711c-6.012,0-10.925-4.848-10.925-10.925V34.168c0-6.012,4.848-10.925,10.925-10.925h327.046
		c6.012,0,10.925,4.848,10.925,10.925v110.545c0,6.012-4.848,10.925-10.925,10.925H189.931l-29.608-10.99
		C154.634,142.128,145.261,146.071,145.648,155.639z M308.881,255.13c-8.792,4.202-8.404,13.317-3.685,17.842l41.697,41.697
		l-30.448,30.448l-41.697-41.697c-4.331-5.172-14.61-4.267-17.842,3.685l-16.679,42.15l-26.246-70.917h6.594
		c6.012,0,10.925-4.848,10.925-10.925c0-6.077-4.848-10.925-10.925-10.925h-14.675l-7.564-20.428h34.909
		c6.012,0,10.925-4.848,10.925-10.925c0-6.012-4.848-10.925-10.925-10.925H190.19l-15.127-40.857l175.903,65.164L308.881,255.13z"/>
	<polygon style="fill:#194F82;" points="211.329,124.156 222.836,124.156 246.756,55.696 270.61,124.156 282.117,124.156 
		297.18,75.93 312.307,124.156 323.814,124.156 348.057,54.855 331.248,54.855 317.479,94.677 305.325,54.855 289.164,54.855 
		276.881,94.677 263.176,54.855 247.014,54.855 246.432,54.855 230.271,54.855 216.501,94.677 204.283,54.855 188.121,54.855 
		175.838,94.677 162.198,54.855 145.972,54.855 145.39,54.855 129.293,54.855 115.459,94.677 103.24,54.855 87.079,54.855 
		74.796,94.677 61.091,54.855 44.347,54.855 68.525,124.156 80.032,124.156 95.095,75.93 110.352,124.156 121.794,124.156 
		145.713,55.696 169.632,124.156 181.139,124.156 196.202,75.93 	"/>
</g>
<path style="fill:#FFC10D;" d="M190.255,214.338h43.055c6.012,0,10.925,4.848,10.925,10.925c0,6.012-4.848,10.925-10.925,10.925
	H198.4l7.564,20.428h14.675c6.012,0,10.925,4.848,10.925,10.925c0,6.012-4.848,10.925-10.925,10.925h-6.594l26.246,70.917
	L256.84,307.3c3.232-8.016,13.511-8.986,17.842-3.685l41.697,41.697l30.448-30.448l-41.697-41.697
	c-4.655-4.59-5.107-13.705,3.685-17.842l42.085-16.549l-175.838-65.358L190.255,214.338z"/>
</svg>